<?xml version="1.0" standalone="no"?>
<!DOCTYPE svg PUBLIC "-//W3C//DTD SVG 20010904//EN"
 "http://www.w3.org/TR/2001/REC-SVG-20010904/DTD/svg10.dtd">
<svg version="1.0" xmlns="http://www.w3.org/2000/svg"
 width="28.000000pt" height="32.000000pt" viewBox="0 0 28.000000 32.000000"
 preserveAspectRatio="xMidYMid meet">
<metadata>
Created by potrace 1.16, written by Peter Selinger 2001-2019
</metadata>
<g transform="translate(0.000000,32.000000) scale(0.100000,-0.100000)"
fill="#000000" stroke="none">
<path d="M1 270 c1 -27 3 -50 4 -50 1 0 12 15 25 33 l23 32 -24 -20 -24 -20
24 28 c24 27 38 36 26 17 -3 -5 -2 -10 4 -10 5 0 13 5 16 10 8 13 122 13 130
0 9 -15 27 -12 19 3 -4 6 5 1 19 -12 33 -30 36 -42 5 -15 -20 17 -20 15 2 -11
14 -17 25 -31 26 -33 0 -1 2 20 3 48 l1 50 -140 0 -140 0 1 -50z"/>
<path d="M30 200 c-11 -11 -20 -29 -20 -40 0 -25 34 -60 58 -60 9 0 42 23 72
50 59 53 93 63 110 30 22 -42 -34 -82 -68 -48 -6 6 -15 8 -19 4 -10 -10 25
-36 49 -36 24 0 58 35 58 60 0 24 -34 60 -56 60 -8 0 -39 -22 -68 -50 -58 -55
-97 -65 -116 -30 -15 28 4 60 35 60 14 0 25 -4 25 -10 0 -5 7 -10 15 -10 24 0
17 20 -11 30 -35 14 -41 13 -64 -10z"/>
<path d="M1 50 l-1 -50 140 0 140 0 -1 50 c-1 28 -3 49 -3 48 -1 -2 -14 -19
-31 -38 l-30 -35 30 25 30 25 -23 -26 c-22 -25 -29 -26 -112 -26 -83 0 -90 1
-112 26 l-23 26 30 -25 30 -25 -25 30 c-14 17 -27 34 -31 38 -3 4 -7 -15 -8
-43z"/>
</g>
</svg>
